#N canvas 389 140 810 524 10;
#X obj 153 393 outlet~;
#X floatatom 30 234 5 0 0 0 - - -, f 5;
#X text 25 216 vol;
#X msg 30 186 1;
#X msg 100 69 \; pd dsp 1;
#X obj 100 38 loadbang;
#X floatatom 72 234 5 0 0 0 - - -, f 5;
#X text 67 216 length;
#X floatatom 120 234 5 0 0 0 - - -, f 5;
#X floatatom 169 234 5 0 0 0 - - -, f 5;
#X text 169 214 pitch;
#X text 121 215 start;
#X msg 110 186 1;
#X msg 72 186 440;
#X msg 147 186 100;
#X obj 79 329 dac~;
#N canvas 545 395 450 300 sequencer 0;
#X obj 210 34 tgl 15 0 empty empty empty 17 7 0 10 -262144 -1 -1 1
1;
#X obj 209 76 f;
#X obj 209 98 + 1;
#X obj 209 120 % 16;
#X floatatom 209 142 5 0 0 0 - - -, f 5;
#X obj 185 6 loadbang;
#X obj 282 6 r bpm;
#X obj 283 72 /;
#X msg 283 50 60000;
#X obj 282 28 t b f;
#X obj 283 94 / 4;
#X floatatom 283 116 5 0 0 0 - - -, f 5;
#X obj 209 54 metro 125;
#X obj 211 177 s tick;
#X obj 123 8 r play;
#X connect 0 0 12 0;
#X connect 1 0 2 0;
#X connect 2 0 1 1;
#X connect 2 0 3 0;
#X connect 3 0 4 0;
#X connect 4 0 13 0;
#X connect 5 0 0 0;
#X connect 6 0 9 0;
#X connect 7 0 10 0;
#X connect 8 0 7 0;
#X connect 9 0 8 0;
#X connect 9 1 7 1;
#X connect 10 0 11 0;
#X connect 11 0 12 1;
#X connect 12 0 1 0;
#X connect 14 0 0 0;
#X restore 297 158 pd sequencer;
#X obj 406 184 s echo;
#X obj 310 110 bng 15 250 50 0 empty empty empty 17 7 0 10 -262144
-1 -1;
#X obj 310 88 r noteTrigger0;
#X obj 411 110 bng 15 250 50 0 empty empty empty 17 7 0 10 -262144
-1 -1;
#X obj 411 88 r noteTrigger1;
#X msg 353 298 claps.wav;
#X msg 327 249 bd.wav;
#X obj 245 278 sampleplayer 1;
#X obj 507 109 bng 15 250 50 0 empty empty empty 17 7 0 10 -262144
-1 -1;
#X obj 507 87 r noteTrigger2;
#X msg 393 356 hht.wav;
#X msg 400 398 hht.wav;
#X obj 625 107 bng 15 250 50 0 empty empty empty 17 7 0 10 -262144
-1 -1;
#X obj 625 85 r noteTrigger3;
#X obj 273 332 sampleplayer 2;
#X obj 311 381 sampleplayer 3;
#X obj 321 421 sampleplayer 4;
#X obj 163 435 outlet~;
#X obj 212 451 outlet~;
#X obj 282 474 outlet~;
#X connect 3 0 1 0;
#X connect 5 0 4 0;
#X connect 5 0 13 0;
#X connect 5 0 12 0;
#X connect 5 0 14 0;
#X connect 5 0 23 0;
#X connect 5 0 27 0;
#X connect 5 0 28 0;
#X connect 5 0 22 0;
#X connect 12 0 8 0;
#X connect 13 0 6 0;
#X connect 14 0 9 0;
#X connect 18 0 24 0;
#X connect 19 0 18 0;
#X connect 20 0 31 0;
#X connect 21 0 20 0;
#X connect 22 0 31 1;
#X connect 23 0 24 1;
#X connect 24 0 0 0;
#X connect 24 0 15 0;
#X connect 24 0 15 1;
#X connect 25 0 32 0;
#X connect 26 0 25 0;
#X connect 27 0 32 1;
#X connect 28 0 33 1;
#X connect 29 0 33 0;
#X connect 30 0 29 0;
#X connect 31 0 15 1;
#X connect 31 0 15 0;
#X connect 31 0 34 0;
#X connect 32 0 15 0;
#X connect 32 0 15 1;
#X connect 32 0 35 0;
#X connect 33 0 15 1;
#X connect 33 0 15 0;
#X connect 33 0 36 0;
