#N canvas 228 22 1009 703 12;
#X obj 599 355 line~;
#X obj 570 202 t b b;
#X msg 650 327 0;
#X obj 570 328 pack f f;
#X obj 570 175 r \$0-TICK;
#X obj 655 174 r \$0-SAMPCOUNT;
#X obj 570 304 f;
#X obj 655 238 / 44100;
#X obj 655 268 * 1000;
#X obj 726 240 r \$0-DURRATIO;
#X obj 682 298 *;
#X obj 726 269 t b f;
#X obj 122 333 soundfiler;
#X obj 149 414 / 44100;
#X obj 149 444 * 1000;
#X obj 122 360 t b f;
#X obj 209 414 s \$0-SAMPCOUNT;
#X obj 86 604 s \$0-TICK;
#X obj 328 379 print LOADED;
#X obj 181 497 *;
#X obj 238 258 /;
#X obj 204 443 r \$0-DURRATIO;
#X obj 238 282 s \$0-DURRATIO;
#X obj 362 143 loadbang;
#X msg 362 166 1;
#X obj 257 557 print TEMPO;
#X obj 204 465 t b f;
#X obj 86 521 metro;
#X obj 235 208 t b f;
#X msg 236 237 1;
#X obj 799 171 table \$1-sampletable;
#X msg 122 305 read -resize \$1 \$2-sampletable;
#X obj 599 383 tabread~ \$1-sampletable;
#X obj 122 208 pack s \$1;
#X obj 83 573 bng 15 250 50 0 empty empty empty 17 7 0 10 -262144 -1
-1;
#X obj 27 303 inlet;
#X obj 123 181 r \$1-loadfile;
#X obj 600 458 outlet~;
#X floatatom 231 141 5 0 0 0 - - -, f 5;
#X obj 234 120 hsl 128 15 0 2 0 0 empty empty empty -2 -8 0 10 -262144
-1 -1 0 1;
#X obj 239 169 r \$1- playrate;
#X obj 40 161 inlet;
#X text 31 126 load sample 1;
#X text 12 273 trigger 2;
#X obj 437 570 s echo;
#X obj 714 408 r \$0-volume;
#X obj 714 433 / 100;
#X obj 600 433 *~ 0.7;
#X connect 0 0 32 0;
#X connect 1 0 6 0;
#X connect 1 1 2 0;
#X connect 2 0 0 0;
#X connect 3 0 0 0;
#X connect 4 0 1 0;
#X connect 5 0 7 0;
#X connect 5 0 6 1;
#X connect 6 0 3 0;
#X connect 7 0 8 0;
#X connect 8 0 10 0;
#X connect 9 0 11 0;
#X connect 10 0 3 1;
#X connect 11 0 10 0;
#X connect 11 1 10 1;
#X connect 12 0 15 0;
#X connect 13 0 14 0;
#X connect 14 0 19 0;
#X connect 15 0 27 0;
#X connect 15 1 13 0;
#X connect 15 1 16 0;
#X connect 15 1 18 0;
#X connect 19 0 25 0;
#X connect 19 0 27 1;
#X connect 20 0 22 0;
#X connect 21 0 26 0;
#X connect 23 0 24 0;
#X connect 24 0 28 0;
#X connect 26 0 19 0;
#X connect 26 1 19 1;
#X connect 28 0 29 0;
#X connect 28 1 20 1;
#X connect 29 0 20 0;
#X connect 31 0 12 0;
#X connect 32 0 47 0;
#X connect 33 0 31 0;
#X connect 34 0 17 0;
#X connect 35 0 34 0;
#X connect 36 0 33 0;
#X connect 38 0 28 0;
#X connect 39 0 38 0;
#X connect 40 0 28 0;
#X connect 41 0 33 0;
#X connect 45 0 46 0;
#X connect 46 0 47 1;
#X connect 47 0 37 0;
